<?xml version="1.0" encoding="UTF-8"?>
<!DOCTYPE svg PUBLIC "-//W3C//DTD SVG 1.1//EN" "http://www.w3.org/Graphics/SVG/1.1/DTD/svg11.dtd">
<!-- Creator: CorelDRAW X7 -->
<svg xmlns="http://www.w3.org/2000/svg" xml:space="preserve" width="146.364mm" height="30.319mm" version="1.1" style="shape-rendering:geometricPrecision; text-rendering:geometricPrecision; image-rendering:optimizeQuality; fill-rule:evenodd; clip-rule:evenodd"
viewBox="0 0 14027 2906"
 xmlns:xlink="http://www.w3.org/1999/xlink">
 <defs>
  <style type="text/css">
   <![CDATA[
    .fil0 {fill:#231F20}
    .fil1 {fill:#233DFF}
    .fil2 {fill:white}
   ]]>
  </style>
 </defs>
 <g id="Layer_x0020_1">
  <metadata id="CorelCorpID_0Corel-Layer"/>
  <g id="_2515612344848">
   <path class="fil0" d="M3682 1106c56,51 353,493 442,598 63,0 66,8 99,-38l416 -558 -2 1038 274 0 0 -1483 -228 0c-21,7 -340,442 -396,517 -34,47 -101,127 -124,171 -45,-34 -98,-120 -135,-171 -47,-65 -81,-109 -130,-175l-256 -341 -233 0 0 1482 271 -2 2 -1038z"/>
   <path class="fil0" d="M8034 1678c-124,451 -750,269 -640,-187 108,-443 762,-257 640,187zm11 -479c-241,-387 -921,-219 -921,387 0,483 469,745 818,502 49,-35 75,-82 112,-116l2 170 251 5 -1 -1536 -261 0 0 588z"/>
   <path class="fil0" d="M8880 1647c-30,-205 99,-375 264,-405 454,-84 536,621 120,690 -204,33 -359,-115 -384,-285zm-266 497l251 2 0 -178c3,2 6,2 7,6l21 24c60,75 102,121 219,159 321,103 679,-147 686,-561 4,-260 -141,-468 -310,-548 -102,-49 -236,-72 -360,-37 -100,28 -159,77 -219,148l-36 34 6 -582 -263 0 -2 1533z"/>
   <path class="fil0" d="M6080 2145c0,-191 -9,-402 0,-590 9,-169 109,-308 276,-319 210,-14 279,122 281,319 2,195 0,392 0,590l264 1c0,-293 46,-773 -96,-987 -116,-177 -389,-217 -593,-105 -45,25 -77,58 -109,94 -4,4 -15,16 -16,18 -16,15 -3,5 -20,18l0 -158 -252 -1 0 1121 265 -1z"/>
   <path class="fil0" d="M10899 1026c0,508 -123,1155 529,1154 637,-1 526,-623 526,-1155l-263 0c0,196 4,397 0,592 -5,185 -72,316 -263,318 -201,1 -263,-134 -267,-329 -4,-191 0,-386 0,-580l-262 0z"/>
   <path class="fil0" d="M12164 1790c10,257 210,388 479,390 264,2 490,-117 474,-391 -24,-411 -627,-228 -647,-439 -14,-151 169,-164 267,-123 54,23 75,59 92,122l255 2c-9,-438 -666,-429 -808,-222 -60,88 -96,221 -40,343 118,259 481,170 585,282 37,39 35,116 -3,159 -65,75 -365,120 -402,-122l-252 -1z"/>
   <path class="fil0" d="M13431 697l-5 326 -233 3 0 226 231 0c14,210 -30,526 42,704 38,92 99,148 202,175 69,18 288,23 358,11l0 -213c-172,-16 -319,46 -335,-169 -8,-114 -10,-398 2,-508l334 -1 -1 -221 -335 -5 -1 -328 -259 0z"/>
   <path class="fil0" d="M10322 2142c0,-160 -17,-501 13,-639 21,-101 65,-157 125,-201 85,-63 162,-44 273,-52l0 -223c-146,-9 -255,-4 -351,96l-64 76c-1,-1 -4,5 -7,7l0 -180 -253 -1 0 1122 264 -5z"/>
   <polygon class="fil0" points="5242,2146 5469,2147 5506,2142 5506,1029 5470,1025 5241,1025 "/>
   <path class="fil0" d="M5331 556c-217,56 -125,349 97,286 190,-52 120,-343 -97,-286z"/>
   <g>
    <ellipse class="fil1" cx="1455" cy="1453" rx="1455" ry="1453"/>
    <g>
     <path class="fil2" d="M1845 447c-43,14 -36,85 -36,117l3 1060c1,203 3,406 1,609 0,37 23,17 37,8l140 -90c62,-41 123,-78 184,-120 63,-42 120,-59 180,-124 66,-72 76,-132 77,-227 3,-202 1,-405 1,-607 -1,-136 14,-256 -106,-351 -53,-42 -214,-142 -275,-181 -44,-28 -158,-109 -206,-94z"/>
     <path class="fil2" d="M1765 1314c0,-97 -47,-169 -97,-209 -43,-33 -308,-198 -371,-237 -22,-13 -73,-50 -100,-51 -57,-1 -58,61 -58,95 -1,431 1,863 1,1294 0,97 -1,83 61,120 69,41 134,86 197,124 40,25 80,24 120,-3 63,-42 125,-83 195,-122 58,-32 56,-57 50,-103 -3,-17 0,-363 0,-452l2 -456z"/>
     <path class="fil2" d="M1088 2250c14,-24 11,-666 9,-703 -2,-40 5,-71 -1,-114 -10,-77 -51,-144 -112,-185 -122,-83 -271,-183 -396,-260 -24,-15 -58,-36 -88,-10 -25,21 -24,54 -24,95l3 593c0,84 2,135 42,196 9,13 28,38 41,48 82,63 283,185 379,247 30,20 121,79 147,93z"/>
    </g>
   </g>
  </g>
 </g>
</svg>
