<svg xmlns="http://www.w3.org/2000/svg" version="1.1" xmlns:xlink="http://www.w3.org/1999/xlink" width="512" height="512" x="0" y="0" viewBox="0 0 24 24" style="enable-background:new 0 0 512 512" xml:space="preserve" class=""><g><g fill="#000" fill-rule="evenodd" clip-rule="evenodd"><path d="M3.705 15.182a.75.75 0 0 1 .75-.75h3.863c.69 0 1.25.56 1.25 1.25v3.864a.75.75 0 0 1-1.5 0v-3.614H4.455a.75.75 0 0 1-.75-.75z" fill="#ffffff" opacity="1" data-original="#000000" class=""></path><path d="M8.621 15.379a.75.75 0 0 1 0 1.06l-5.09 5.091a.75.75 0 1 1-1.061-1.06l5.09-5.091a.75.75 0 0 1 1.061 0zM8.818 3.705a.75.75 0 0 1 .75.75v3.863c0 .69-.56 1.25-1.25 1.25H4.455a.75.75 0 0 1 0-1.5h3.613V4.455a.75.75 0 0 1 .75-.75z" fill="#ffffff" opacity="1" data-original="#000000" class=""></path><path d="M2.47 2.47a.75.75 0 0 1 1.06 0l5.091 5.09a.75.75 0 1 1-1.06 1.061L2.47 3.531a.75.75 0 0 1 0-1.061zM15.182 3.705a.75.75 0 0 1 .75.75v3.613h3.614a.75.75 0 0 1 0 1.5h-3.864c-.69 0-1.25-.56-1.25-1.25V4.455a.75.75 0 0 1 .75-.75z" fill="#ffffff" opacity="1" data-original="#000000" class=""></path><path d="M21.53 2.47a.75.75 0 0 1 0 1.06l-5.09 5.091a.75.75 0 1 1-1.061-1.06l5.09-5.091a.75.75 0 0 1 1.061 0zM15.932 15.932h3.613a.75.75 0 0 0 0-1.5h-3.863c-.69 0-1.25.56-1.25 1.25v3.864a.75.75 0 0 0 1.5 0z" fill="#ffffff" opacity="1" data-original="#000000" class=""></path><path d="M15.379 15.379a.75.75 0 0 1 1.06 0l5.091 5.09a.75.75 0 1 1-1.06 1.061l-5.091-5.09a.75.75 0 0 1 0-1.061z" fill="#ffffff" opacity="1" data-original="#000000" class=""></path></g></g></svg>